PathFileType	4	(X/Y/Z)	./resultDataOpenSim/trcMotMarkerGrf/sub10/qtm-14-04.trc
DataRate	CameraRate	NumFrames	NumMarkers	Units	OrigDataRate	OrigDataStartFrame	OrigNumFrames
250.000000	250.000000	6	24	m	250.000000	184	490
Frame#	Time	L.Toe.Tip			R.Toe.Tip			L.Ankle.Lat			R.Ankle.Lat			L.Ankle.Med			R.Ankle.Med			L.Heel			R.Heel			L.Knee.Lat			R.Knee.Lat			L.Knee.Med			R.Knee.Med			L.Thigh.Upper			R.Thigh.Upper			L.ASIS			R.ASIS			V.Sacral			L.Acromium			R.Acromium			C7			L.Elbow			R.Elbow			L.Wrist.Lat			R.Wrist.Lat
		X1	Y1	Z1	X2	Y2	Z2	X3	Y3	Z3	X4	Y4	Z4	X5	Y5	Z5	X6	Y6	Z6	X7	Y7	Z7	X8	Y8	Z8	X9	Y9	Z9	X10	Y10	Z10	X11	Y11	Z11	X12	Y12	Z12	X13	Y13	Z13	X14	Y14	Z14	X15	Y15	Z15	X16	Y16	Z16	X17	Y17	Z17	X18	Y18	Z18	X19	Y19	Z19	X20	Y20	Z20	X21	Y21	Z21	X22	Y22	Z22	X23	Y23	Z23	X24	Y24	Z24

184	0.732	0.033813608	-0.031795433	-0.13676629	-0.61455268	0.085979291	-0.0066479301	-0.10000884	-0.0068203046	-0.17602765	-0.63517516	0.23139701	6.8610665e-05	-0.10166422	0.015866893	-0.093369333	-0.58927742	0.20163329	-0.069653834	-0.16706155	-0.038645155	-0.13925327	-0.66442356	0.25655438	-0.06174998	-0.068231562	0.37906779	-0.20910766	-0.29980097	0.37530757	0.073782707	-0.078934007	0.36398865	-0.086429658	-0.22854787	0.33874768	-0.039595471	-0.15805252	0.76352431	-0.27773355	-0.2614112	0.77426234	0.091468717	-0.11886487	0.86000846	-0.18825399	-0.16487601	0.86836978	0.027925836	-0.33239783	0.88459698	-0.13713073	-0.24401981	1.3379258	-0.26785758	-0.2745674	1.3328365	0.046661346	-0.33173598	1.3510624	-0.12279668	-0.42076486	1.0481926	-0.29991521	-0.31774617	0.98184801	0.12428543	-0.38464223	0.8223361	-0.38970381	-0.11312737	0.8997941	0.25279862
185	0.736	0.034587438	-0.032018862	-0.13694959	-0.60080769	0.091134453	-0.0030160073	-0.098825229	-0.006590437	-0.17584303	-0.62139802	0.23649099	0.00035220445	-0.10008154	0.016424878	-0.093025711	-0.57589063	0.20571522	-0.069217118	-0.16645378	-0.037979211	-0.13901278	-0.65066565	0.26092034	-0.06201522	-0.059001677	0.37965796	-0.20876779	-0.28536504	0.37350774	0.0749129	-0.071112571	0.36565983	-0.086762363	-0.2135463	0.33810248	-0.039121299	-0.15208038	0.76259635	-0.27837659	-0.2535707	0.77184733	0.091569358	-0.11360657	0.85795899	-0.18876883	-0.15855254	0.86632649	0.026536736	-0.32815554	0.88283703	-0.1375975	-0.23604454	1.3367394	-0.26831697	-0.26732091	1.3319395	0.046610819	-0.32341512	1.3508416	-0.12401935	-0.411256	1.0459551	-0.30208248	-0.31227993	0.9812024	0.12518931	-0.3759572	0.82053474	-0.39202368	-0.11067307	0.89871613	0.25733919
186	0.74	0.035251448	-0.032261172	-0.13718382	-0.58661628	0.096195855	0.00049109932	-0.097723853	-0.0065839481	-0.17578393	-0.60722422	0.24145312	0.00071614254	-0.098516001	0.016895287	-0.092652401	-0.56213609	0.20961265	-0.068755515	-0.16592219	-0.037361028	-0.13888853	-0.6367154	0.26505482	-0.062220657	-0.050255247	0.37990482	-0.20849513	-0.27054167	0.37195706	0.075844546	-0.063544915	0.36678706	-0.087339728	-0.19864448	0.3379954	-0.038792736	-0.14565583	0.76160866	-0.2790359	-0.24584989	0.76949841	0.091672841	-0.10836463	0.85621186	-0.18951382	-0.15256859	0.86438948	0.025251771	-0.32333912	0.88075077	-0.13757039	-0.22813052	1.3356944	-0.26860079	-0.25985513	1.331176	0.046542528	-0.31482634	1.3509267	-0.12496418	-0.40153406	1.0438214	-0.30424697	-0.30691836	0.98076496	0.12625101	-0.36683199	0.8189041	-0.39464294	-0.10838341	0.8979101	0.26194596
187	0.744	0.035737974	-0.0325101	-0.13747389	-0.57196298	0.10122273	0.0038298947	-0.096866836	-0.0066112338	-0.17588287	-0.59268193	0.24629189	0.0011914967	-0.09720927	0.017286058	-0.092412411	-0.54803548	0.21328048	-0.06821342	-0.16553565	-0.03678449	-0.1389201	-0.62253471	0.26896493	-0.062327218	-0.042053454	0.37984776	-0.20831062	-0.25534212	0.37072452	0.076688301	-0.055643284	0.36739583	-0.087985142	-0.1838087	0.33827611	-0.038588117	-0.13851957	0.76051799	-0.27974164	-0.23827055	0.7672645	0.091755882	-0.10315129	0.85473874	-0.19054873	-0.14693491	0.86257267	0.024094948	-0.31818947	0.8788208	-0.1371865	-0.22023038	1.3347344	-0.26876225	-0.25219229	1.330509	0.046438066	-0.30620534	1.3511619	-0.1255261	-0.39170327	1.0417997	-0.30621438	-0.30167216	0.98051975	0.12738442	-0.35729278	0.81747316	-0.39753727	-0.10623689	0.89742119	0.26661008
188	0.748	0.036065475	-0.032742778	-0.13776967	-0.55681193	0.10622859	0.0069868604	-0.096219121	-0.0065713879	-0.17608269	-0.57786906	0.2509285	0.0017573961	-0.096220233	0.017605448	-0.092356865	-0.53361234	0.21675928	-0.067539663	-0.16527987	-0.036217314	-0.13907281	-0.60810943	0.27267955	-0.062254618	-0.034406926	0.37955202	-0.20825448	-0.23979453	0.36984029	0.077525337	-0.047016778	0.36751699	-0.088530125	-0.16904042	0.3388673	-0.038532806	-0.13101281	0.75934784	-0.28053526	-0.23085524	0.76516733	0.091789795	-0.097992076	0.85348982	-0.19191133	-0.14162526	0.86087611	0.023064526	-0.31302331	0.87731182	-0.13648273	-0.21230578	1.3338069	-0.26883343	-0.2443587	1.3299066	0.046276797	-0.29764819	1.3514012	-0.1257682	-0.38181414	1.0398625	-0.30792146	-0.29643666	0.98043825	0.12843395	-0.3473849	0.81623932	-0.40065096	-0.10420883	0.89726444	0.27132526
189	0.752	0.036298058	-0.032932039	-0.13802628	-0.54117693	0.11114997	0.0099533211	-0.095670669	-0.0064646515	-0.17628461	-0.56288346	0.25527212	0.0023851972	-0.095438788	0.017879983	-0.092402186	-0.51888544	0.22014473	-0.0667135	-0.16508573	-0.035631664	-0.1392466	-0.59344632	0.27623371	-0.061925756	-0.027310833	0.37908456	-0.20833877	-0.22391281	0.36928146	0.078392555	-0.037908233	0.36717739	-0.088903804	-0.15437908	0.33972305	-0.038629653	-0.12414109	0.75819386	-0.28148227	-0.22362032	0.76322236	0.09175225	-0.09293178	0.85243205	-0.19359662	-0.13659352	0.85929455	0.022152359	-0.30806296	0.87608646	-0.13544876	-0.20433095	1.3328863	-0.26882107	-0.23637755	1.329361	0.046037839	-0.28917673	1.3515149	-0.12583644	-0.37189533	1.0379575	-0.30941434	-0.29103064	0.98048984	0.12923692	-0.33713735	0.81519264	-0.40396104	-0.10228301	0.89743036	0.27609865
